{"title":"Pohwasogeuro (2010) [ 71.Into.the.Fire ] Xvid Cody'sDvDrip","uid":5877429,"size":1552923541,"categoryP":"video","categoryS":"movies","magnet":"?xt=urn:btih:ef81c5993666ebf8090c897ed89fd2002640d72a&amp;dn=Pohwasogeuro+%282010%29+%5B+71.Into.the.Fire+%5D+Xvid+Cody%5C%27sDvDrip&amp;tr=udp%3A%2F%2Ftracker.openbittorrent.com%3A80&amp;tr=udp%3A%2F%2Fopen.demonii.com%3A1337&amp;tr=udp%3A%2F%2Ftracker.coppersurfer.tk%3A6969&amp;tr=udp%3A%2F%2Fexodus.desync.com%3A6969","seeders":1,"leechers":0,"uploader":"CODYBOSS1969","files":5,"time":1286701005,"description":"General\nComplete name : Pohwasogeuro (2010) [ 71.Into.the.Fire ] Xvid Cody'sDvDrip.avi\nFormat : AVI\nFormat/Info : Audio Video Interleave\nFile size : 1.45 GiB\nDuration : 2h 0mn\nOverall bit rate : 1 718 Kbps\nWriting application : VirtualDubMod 1.5.10.2 (build 2540/release)\nWriting library : VirtualDubMod build 2540/release\n\nVideo\nFormat : MPEG-4 Visual\nFormat profile : Streaming Video@L1\nFormat settings, BVOP : Yes\nFormat settings, QPel : Yes\nFormat settings, GMC : 3 warppoints\nFormat settings, Matrix : Default\nMuxing mode : Packet Bitstream\nCodec ID : XVID\nCodec ID/Hint : XviD\nDuration : 2h 0mn\nBit rate : 1 516 Kbps\nWidth : 720 pixels\nHeight : 304 pixels\nDisplay aspect ratio : 2.35\nFrame rate : 23.976 fps\nResolution : 24 bits\nColorimetry : 4:2:0\nScan type : Progressive\nBits/(Pixel*Frame) : 0.289\nStream size : 1.28 GiB (88%)\nWriting library : XviD 1.2.0.dev47 (UTC 2006-11-01)\n\nAudio\nFormat : MPEG Audio\nFormat version : Version 1\nFormat profile : Layer 3\nCodec ID : 55\nCodec ID/Hint : MP3\nDuration : 2h 0mn\nBit rate mode : Constant\nBit rate : 192 Kbps\nMinimum bit rate : 192 Kbps\nChannel(s) : 2 channels\nSampling rate : 48.0 KHz\nResolution : 16 bits\nStream size : 166 MiB (11%)\nAlignment : Aligned on interleaves\nInterleave, duration : 42 ms (1.00 video frame)\nInterleave, preload duration : 504 ms\nWriting library : LAME3.97\nEncoding settings : CBR\n\nSubtitles included: English, Romanian\n\nIMDB link: http://www.imdb.com/title/tt1587729/\n\n\nDON'T FORGET TO SEED !\nHIT AND RUN IS NOT AN OPTION...BECAUSE THIS IS A TORRENT !","torrent":{"xt":"urn:btih:ef81c5993666ebf8090c897ed89fd2002640d72a","amp;dn":"Pohwasogeuro+%282010%29+%5B+71.Into.the.Fire+%5D+Xvid+Cody%5C%27sDvDrip","amp;tr":["udp%3A%2F%2Ftracker.openbittorrent.com%3A80","udp%3A%2F%2Fopen.demonii.com%3A1337","udp%3A%2F%2Ftracker.coppersurfer.tk%3A6969","udp%3A%2F%2Fexodus.desync.com%3A6969"],"infoHash":"ef81c5993666ebf8090c897ed89fd2002640d72a","infoHashBuffer":{"type":"Buffer","data":[239,129,197,153,54,102,235,248,9,12,137,126,216,159,210,0,38,64,215,42]},"announce":[],"urlList":[]}}